<?xml version="1.0" encoding="utf-8"?>
<!-- Generator: Adobe Illustrator 28.0.0, SVG Export Plug-In . SVG Version: 6.00 Build 0)  -->
<svg version="1.1" id="Layer_1" xmlns="http://www.w3.org/2000/svg" xmlns:xlink="http://www.w3.org/1999/xlink" x="0px" y="0px"
	 viewBox="0 0 270.56 58.17" style="enable-background:new 0 0 270.56 58.17;" xml:space="preserve">
<style type="text/css">
	.st0{fill:#221F20;}
</style>
<g>
	<path class="st0" d="M25.96,17.69c-2.44,2.65-6.52,4.07-11.79,4.07C5.5,21.77,0,17.96,0,10.88S5.5,0,14.14,0
		c5.15,0,8.88,1.54,11.18,3.55l-5.5,4.16c-1.75-1.31-3.17-1.78-5.33-1.78c-4.25,0-6.23,1.92-6.23,4.95c0,3.09,2.07,5.06,6.23,5.06
		c1.48,0,2.62-0.2,3.96-0.76v-1.6h-5.12v-4.8h12.63V17.69z"/>
	<path class="st0" d="M44.65,21.07l-4.57-5.59h-3.64v5.59h-8.09V0.7H43c5.65,0,10.22,2.33,10.22,7.39c0,3.32-1.95,5.47-4.89,6.55
		l5.53,6.43H44.65z M36.45,10.36h5.85c1.57,0,2.68-0.52,2.68-2.04s-1.11-2.04-2.68-2.04h-5.85V10.36z"/>
	<path class="st0" d="M72.93,17.87h-9.26l-1.43,3.2h-8.44L63.94,0.7h8.85l10.13,20.37h-8.56L72.93,17.87z M70.72,12.92l-2.42-5.41
		l-2.42,5.41H70.72z"/>
	<path class="st0" d="M109.07,0.7v20.37h-7.16L91.32,9.98v11.09h-7.86V0.7h8.61l9.14,9.81V0.7H109.07z"/>
	<path class="st0" d="M133.52,6.66h-7.68v14.41h-8.15V6.66H110V0.7h23.52L133.52,6.66L133.52,6.66z"/>
	<path class="st0" d="M159.92,10.88c0,6.49-5.12,10.19-13.15,10.19h-12.34V0.7h12.34C154.8,0.7,159.92,4.39,159.92,10.88z
		 M151.6,10.88c0-2.62-2.04-4.13-5.53-4.13h-3.49v8.27h3.49C149.56,15.02,151.6,13.5,151.6,10.88z"/>
	<path class="st0" d="M177.22,17.87h-9.26l-1.43,3.2h-8.44L168.23,0.7h8.85l10.13,20.37h-8.56L177.22,17.87z M175.01,12.92
		l-2.42-5.41l-2.42,5.41H175.01z"/>
	<path class="st0" d="M191.57,0.7l5.06,12.84L201.7,0.7h8.56l-9.43,20.37h-8.5L182.9,0.7L191.57,0.7z"/>
	<path class="st0" d="M210.81,21.07V0.7h8.15v20.37H210.81z"/>
	<path class="st0" d="M244.78,15.42v5.65h-22.99V0.7h22.67v5.65h-14.7v1.89h11.82v5.06h-11.82v2.12L244.78,15.42L244.78,15.42z"/>
	<path class="st0" d="M270.56,14.32c0,4.54-3.99,7.45-11.64,7.45c-5.38,0-10.16-1.37-13.53-3.78l3.9-4.48
		c2.27,1.54,5.82,2.76,9.75,2.76c2.39,0,3.52-0.35,3.52-1.08c0-0.7-0.79-1.02-4.19-1.31c-6.43-0.55-12.05-2.04-12.05-6.81
		c0-4.57,4.98-7.07,11.73-7.07c4.22,0,8.59,0.96,11.67,2.88l-3.7,4.51c-2.36-1.43-5.01-1.98-7.95-1.98c-1.78,0-3.75,0.17-3.75,0.96
		c0,0.67,1.4,0.87,4.34,1.11C265.62,8.06,270.56,9.34,270.56,14.32z"/>
</g>
<g>
	<g>
		<path class="st0" d="M1.1,39.7c0.49-1.18,1.15-2.19,1.98-3.03c0.82-0.84,1.78-1.5,2.89-1.97c1.1-0.47,2.27-0.71,3.49-0.71
			c1.29,0,2.48,0.25,3.59,0.75c1.1,0.5,2.07,1.18,2.89,2.03c0.81,0.87,1.45,1.88,1.91,3.04c0.47,1.16,0.7,2.41,0.7,3.74
			s-0.23,2.58-0.7,3.75c-0.47,1.17-1.11,2.19-1.91,3.05c-0.82,0.88-1.78,1.57-2.89,2.07c-1.11,0.5-2.3,0.75-3.59,0.75
			c-1.29,0-2.49-0.25-3.6-0.75c-1.11-0.5-2.07-1.19-2.88-2.07c-0.82-0.87-1.46-1.88-1.93-3.05c-0.47-1.17-0.7-2.42-0.7-3.75
			C0.36,42.16,0.61,40.88,1.1,39.7z M2.41,46.71c0.39,0.99,0.92,1.84,1.61,2.57c0.68,0.74,1.49,1.32,2.42,1.74
			c0.93,0.42,1.93,0.63,3.02,0.63c1.07,0,2.07-0.21,3-0.64c0.93-0.43,1.73-1.01,2.42-1.75c0.68-0.73,1.22-1.58,1.61-2.56
			c0.39-0.98,0.58-2.03,0.58-3.14c0-1.1-0.19-2.14-0.58-3.12c-0.39-0.97-0.92-1.83-1.61-2.55c-0.68-0.73-1.49-1.3-2.42-1.72
			c-0.93-0.42-1.93-0.62-3-0.62c-1.08,0-2.09,0.21-3.02,0.62c-0.93,0.42-1.73,0.99-2.42,1.72c-0.68,0.73-1.22,1.58-1.61,2.55
			c-0.39,0.97-0.58,2.01-0.58,3.12C1.83,44.67,2.03,45.72,2.41,46.71z M13.28,46.92c-0.17,0.49-0.42,0.9-0.75,1.23
			c-0.36,0.37-0.82,0.64-1.37,0.83c-0.55,0.19-1.17,0.28-1.88,0.28c-0.71,0-1.33-0.12-1.88-0.38c-0.55-0.25-1.01-0.6-1.38-1.04
			c-0.38-0.43-0.67-0.95-0.87-1.56c-0.21-0.6-0.31-1.26-0.31-1.98v-1.49c0-0.71,0.1-1.36,0.31-1.97c0.21-0.61,0.5-1.14,0.87-1.58
			c0.38-0.44,0.84-0.79,1.38-1.04c0.55-0.25,1.17-0.38,1.88-0.38c0.72,0,1.35,0.1,1.91,0.29c0.55,0.19,1.01,0.48,1.38,0.85
			c0.32,0.34,0.56,0.75,0.73,1.23s0.26,1.03,0.26,1.64h-1.88c0-0.39-0.05-0.73-0.14-1.02c-0.09-0.29-0.23-0.53-0.41-0.73
			c-0.19-0.21-0.44-0.36-0.75-0.45s-0.67-0.15-1.09-0.15c-0.43,0-0.81,0.08-1.14,0.26c-0.33,0.17-0.6,0.4-0.81,0.68
			c-0.22,0.3-0.38,0.65-0.48,1.05S6.7,42.35,6.7,42.8v1.5c0,0.47,0.05,0.9,0.15,1.3c0.1,0.4,0.26,0.75,0.48,1.04
			c0.22,0.3,0.49,0.53,0.81,0.7c0.32,0.17,0.7,0.26,1.14,0.26c0.42,0,0.79-0.05,1.09-0.14s0.55-0.25,0.73-0.45
			c0.18-0.19,0.32-0.44,0.41-0.73c0.09-0.29,0.14-0.63,0.14-1.03h1.88C13.54,45.87,13.45,46.43,13.28,46.92z"/>
		<path class="st0" d="M42.49,37.6v15.21h-2.11V37.6h-5.27v-1.85h12.66v1.85H42.49z"/>
		<path class="st0" d="M50.45,43.81c0.27-0.79,0.65-1.47,1.15-2.04c0.49-0.58,1.09-1.03,1.8-1.37s1.51-0.5,2.4-0.5
			c0.9,0,1.71,0.17,2.42,0.5s1.32,0.79,1.82,1.37c0.49,0.58,0.87,1.26,1.14,2.04s0.4,1.63,0.4,2.55v0.26c0,0.91-0.13,1.76-0.4,2.54
			s-0.64,1.46-1.14,2.04c-0.5,0.58-1.11,1.03-1.82,1.36s-1.51,0.49-2.4,0.49c-0.9,0-1.71-0.16-2.42-0.49s-1.32-0.78-1.81-1.36
			c-0.5-0.58-0.88-1.26-1.15-2.04s-0.4-1.63-0.4-2.54v-0.26C50.05,45.44,50.18,44.59,50.45,43.81z M52.44,48.4
			c0.15,0.57,0.38,1.06,0.68,1.49c0.3,0.43,0.67,0.77,1.12,1.02s0.98,0.38,1.58,0.38c0.59,0,1.12-0.12,1.56-0.38
			s0.83-0.59,1.13-1.02c0.3-0.43,0.52-0.93,0.67-1.49s0.22-1.16,0.22-1.79v-0.26c0-0.62-0.08-1.21-0.23-1.78s-0.38-1.06-0.67-1.49
			c-0.3-0.43-0.68-0.77-1.13-1.03s-0.97-0.38-1.58-0.38s-1.12,0.13-1.57,0.38s-0.82,0.6-1.11,1.03c-0.3,0.43-0.53,0.93-0.68,1.49
			s-0.22,1.16-0.22,1.78v0.26C52.21,47.24,52.29,47.84,52.44,48.4z"/>
		<path class="st0" d="M65.01,43.76c0.24-0.79,0.58-1.47,1.03-2.04c0.44-0.57,0.97-1.02,1.59-1.34s1.32-0.48,2.1-0.48
			c0.76,0,1.42,0.13,1.99,0.38s1.06,0.62,1.47,1.11v-6.57h2.17v18h-1.99l-0.09-1.34c-0.42,0.52-0.93,0.91-1.51,1.17
			s-1.27,0.4-2.05,0.4c-0.77,0-1.46-0.16-2.08-0.49s-1.15-0.78-1.59-1.36s-0.78-1.26-1.02-2.04s-0.36-1.63-0.36-2.54v-0.25
			C64.65,45.42,64.77,44.56,65.01,43.76z M67.02,48.37c0.13,0.55,0.34,1.04,0.62,1.46c0.27,0.42,0.62,0.76,1.05,1
			s0.95,0.37,1.55,0.37c0.73,0,1.33-0.16,1.8-0.49s0.86-0.77,1.14-1.32v-5.88c-0.28-0.52-0.66-0.94-1.14-1.27s-1.07-0.5-1.78-0.5
			c-0.61,0-1.13,0.12-1.56,0.38s-0.79,0.59-1.06,1.01c-0.28,0.43-0.49,0.92-0.62,1.48s-0.2,1.15-0.2,1.76v0.25
			C66.82,47.23,66.88,47.82,67.02,48.37z"/>
		<path class="st0" d="M87.59,52.2c-0.05-0.25-0.09-0.5-0.11-0.77c-0.22,0.22-0.46,0.43-0.73,0.62s-0.56,0.37-0.88,0.52
			c-0.33,0.15-0.68,0.27-1.04,0.35s-0.76,0.13-1.17,0.13c-0.67,0-1.28-0.1-1.82-0.29s-1-0.46-1.38-0.8
			c-0.38-0.33-0.68-0.72-0.88-1.18s-0.31-0.95-0.31-1.48c0-0.7,0.14-1.3,0.42-1.83s0.67-0.96,1.18-1.31
			c0.51-0.34,1.12-0.6,1.83-0.77s1.51-0.26,2.4-0.26h2.37v-1c0-0.38-0.07-0.73-0.21-1.03s-0.34-0.57-0.6-0.79
			c-0.26-0.21-0.57-0.38-0.94-0.49s-0.79-0.18-1.25-0.18c-0.43,0-0.81,0.05-1.15,0.16s-0.63,0.25-0.86,0.43s-0.42,0.39-0.54,0.64
			s-0.19,0.5-0.19,0.77h-2.18c0.01-0.46,0.13-0.91,0.36-1.36s0.56-0.85,1-1.21c0.43-0.35,0.96-0.64,1.58-0.86s1.33-0.33,2.12-0.33
			c0.72,0,1.39,0.09,2,0.26s1.15,0.44,1.61,0.79c0.45,0.36,0.8,0.8,1.05,1.34s0.39,1.15,0.39,1.86v5.89c0,0.42,0.04,0.87,0.12,1.34
			s0.19,0.88,0.33,1.24v0.19h-2.26C87.71,52.65,87.64,52.45,87.59,52.2z M85.14,51c0.37-0.11,0.7-0.25,1.01-0.43
			c0.3-0.18,0.55-0.38,0.77-0.62s0.39-0.47,0.52-0.72v-2.57h-2.02c-0.75,0-1.4,0.06-1.96,0.19s-1,0.33-1.33,0.59
			c-0.23,0.19-0.41,0.41-0.53,0.67s-0.18,0.55-0.18,0.88c0,0.31,0.05,0.6,0.16,0.87s0.26,0.49,0.47,0.68
			c0.21,0.2,0.48,0.35,0.8,0.46s0.69,0.16,1.11,0.16S84.78,51.11,85.14,51z"/>
		<path class="st0" d="M94.17,57.87c-0.27-0.05-0.48-0.09-0.62-0.12l0.35-1.77c0.2,0.02,0.39,0.03,0.58,0.04s0.34,0.02,0.45,0.02
			c0.3,0,0.57-0.08,0.81-0.25s0.47-0.36,0.66-0.59c0.19-0.23,0.35-0.46,0.49-0.7s0.24-0.44,0.32-0.6l0.87-1.69l-5.46-12.08h2.43
			l3.48,8.18l0.56,1.54l0.6-1.49l3.27-8.23h2.43l-6.43,14.64c-0.15,0.33-0.34,0.68-0.57,1.04s-0.51,0.71-0.84,1.02
			s-0.71,0.57-1.15,0.79s-0.94,0.32-1.51,0.32C94.68,57.94,94.44,57.91,94.17,57.87z"/>
		<path class="st0" d="M122.12,46.99c0.16-0.45,0.38-0.86,0.66-1.25c0.24-0.33,0.52-0.64,0.84-0.94s0.67-0.59,1.05-0.88l0.42-0.3
			c-0.29-0.39-0.55-0.77-0.77-1.13s-0.41-0.72-0.56-1.07c-0.12-0.29-0.21-0.58-0.28-0.88s-0.1-0.6-0.1-0.91
			c0-0.66,0.1-1.25,0.3-1.76s0.48-0.94,0.85-1.29c0.37-0.34,0.81-0.61,1.32-0.79s1.09-0.27,1.73-0.27c0.55,0,1.06,0.1,1.51,0.29
			s0.84,0.46,1.16,0.79c0.31,0.34,0.55,0.72,0.73,1.16s0.26,0.9,0.26,1.38c0,0.41-0.06,0.79-0.18,1.13s-0.29,0.66-0.5,0.96
			c-0.22,0.3-0.48,0.58-0.77,0.84s-0.62,0.53-0.96,0.79l-1.1,0.94l3.6,4.72c0.27-0.5,0.49-1.05,0.64-1.64s0.24-1.23,0.25-1.92h1.96
			c0,1-0.14,1.93-0.43,2.78s-0.7,1.63-1.25,2.31l2.12,2.78h-2.59l-0.97-1.29c-0.22,0.19-0.45,0.36-0.69,0.52s-0.48,0.29-0.73,0.41
			c-0.41,0.2-0.85,0.34-1.29,0.45c-0.45,0.1-0.91,0.15-1.39,0.15c-0.77,0-1.47-0.11-2.1-0.34s-1.16-0.54-1.59-0.95
			s-0.78-0.89-1.01-1.46s-0.36-1.19-0.36-1.86C121.88,47.92,121.96,47.44,122.12,46.99z M127.89,51.19c0.31-0.07,0.61-0.17,0.9-0.3
			c0.21-0.09,0.42-0.21,0.62-0.33s0.39-0.27,0.58-0.43l-3.79-5.05l-0.33,0.28c-0.39,0.32-0.71,0.63-0.95,0.94s-0.43,0.59-0.55,0.86
			c-0.13,0.27-0.22,0.52-0.26,0.74s-0.06,0.41-0.06,0.56c0,0.4,0.06,0.77,0.19,1.11s0.31,0.64,0.55,0.9s0.54,0.46,0.9,0.61
			s0.78,0.22,1.25,0.22C127.27,51.29,127.58,51.26,127.89,51.19z M125.61,40.19c0.04,0.2,0.1,0.4,0.18,0.59
			c0.09,0.26,0.21,0.52,0.36,0.79s0.32,0.54,0.52,0.82l1.37-1.09c0.24-0.16,0.44-0.34,0.6-0.52s0.28-0.36,0.36-0.55
			c0.09-0.18,0.15-0.36,0.18-0.55s0.05-0.37,0.05-0.55c0-0.23-0.04-0.46-0.11-0.69s-0.18-0.42-0.32-0.59
			c-0.15-0.16-0.32-0.3-0.53-0.4s-0.43-0.16-0.69-0.16c-0.34,0-0.63,0.06-0.88,0.19s-0.46,0.29-0.63,0.5
			c-0.17,0.21-0.3,0.46-0.39,0.73s-0.13,0.57-0.13,0.88C125.55,39.79,125.57,39.99,125.61,40.19z"/>
		<path class="st0" d="M157.71,37.6v15.21h-2.11V37.6h-5.27v-1.85h12.66v1.85H157.71z"/>
		<path class="st0" d="M165.66,43.81c0.27-0.79,0.65-1.47,1.15-2.04c0.49-0.58,1.09-1.03,1.8-1.37s1.51-0.5,2.4-0.5
			c0.9,0,1.71,0.17,2.42,0.5s1.32,0.79,1.82,1.37c0.49,0.58,0.87,1.26,1.14,2.04s0.4,1.63,0.4,2.55v0.26c0,0.91-0.13,1.76-0.4,2.54
			s-0.64,1.46-1.14,2.04c-0.5,0.58-1.11,1.03-1.82,1.36s-1.51,0.49-2.4,0.49c-0.9,0-1.71-0.16-2.42-0.49s-1.32-0.78-1.81-1.36
			c-0.5-0.58-0.88-1.26-1.15-2.04s-0.4-1.63-0.4-2.54v-0.26C165.27,45.44,165.4,44.59,165.66,43.81z M167.66,48.4
			c0.15,0.57,0.38,1.06,0.68,1.49c0.3,0.43,0.67,0.77,1.12,1.02s0.98,0.38,1.58,0.38c0.59,0,1.12-0.12,1.56-0.38
			s0.83-0.59,1.13-1.02c0.3-0.43,0.52-0.93,0.67-1.49s0.22-1.16,0.22-1.79v-0.26c0-0.62-0.08-1.21-0.23-1.78s-0.38-1.06-0.67-1.49
			c-0.3-0.43-0.68-0.77-1.13-1.03s-0.97-0.38-1.58-0.38s-1.12,0.13-1.57,0.38s-0.82,0.6-1.11,1.03c-0.3,0.43-0.53,0.93-0.68,1.49
			s-0.22,1.16-0.22,1.78v0.26C167.43,47.24,167.51,47.84,167.66,48.4z"/>
		<path class="st0" d="M181.33,41.33c0.26-0.45,0.6-0.79,1.01-1.04s0.92-0.38,1.52-0.39c0.34,0,0.64,0.04,0.91,0.11
			s0.51,0.18,0.71,0.32c0.15,0.11,0.28,0.24,0.4,0.4s0.22,0.33,0.31,0.53c0.11-0.18,0.24-0.35,0.39-0.5s0.31-0.29,0.48-0.41
			c0.22-0.13,0.46-0.24,0.73-0.32s0.56-0.12,0.88-0.13c0.44,0,0.83,0.06,1.18,0.19s0.65,0.32,0.89,0.57
			c0.27,0.28,0.47,0.65,0.61,1.1s0.21,0.98,0.21,1.59v9.47h-2.06v-9.49c0-0.27-0.03-0.5-0.09-0.7s-0.15-0.37-0.27-0.5
			c-0.12-0.12-0.28-0.22-0.46-0.28s-0.4-0.09-0.64-0.09c-0.26,0-0.48,0.04-0.67,0.11s-0.34,0.16-0.47,0.28
			c-0.12,0.12-0.22,0.27-0.29,0.43s-0.12,0.34-0.14,0.53c0,0.04,0,0.08,0,0.11s0,0.08,0,0.12v9.49h-2.06v-9.5
			c0-0.27-0.03-0.5-0.09-0.7s-0.15-0.37-0.28-0.5c-0.12-0.12-0.26-0.22-0.44-0.28s-0.38-0.09-0.62-0.09c-0.26,0-0.48,0.03-0.67,0.09
			s-0.35,0.14-0.49,0.25c-0.1,0.09-0.19,0.18-0.26,0.29s-0.13,0.23-0.18,0.35v10.09h-2.06V40.14h1.95L181.33,41.33z"/>
		<path class="st0" d="M194.47,43.81c0.27-0.79,0.65-1.47,1.15-2.04c0.49-0.58,1.09-1.03,1.8-1.37s1.51-0.5,2.4-0.5
			c0.9,0,1.71,0.17,2.42,0.5s1.32,0.79,1.82,1.37c0.49,0.58,0.87,1.26,1.14,2.04s0.4,1.63,0.4,2.55v0.26c0,0.91-0.13,1.76-0.4,2.54
			s-0.64,1.46-1.14,2.04c-0.5,0.58-1.11,1.03-1.82,1.36s-1.51,0.49-2.4,0.49c-0.9,0-1.71-0.16-2.42-0.49s-1.32-0.78-1.81-1.36
			c-0.5-0.58-0.88-1.26-1.15-2.04s-0.4-1.63-0.4-2.54v-0.26C194.07,45.44,194.2,44.59,194.47,43.81z M196.46,48.4
			c0.15,0.57,0.38,1.06,0.68,1.49c0.3,0.43,0.67,0.77,1.12,1.02s0.98,0.38,1.58,0.38c0.59,0,1.12-0.12,1.56-0.38
			s0.83-0.59,1.13-1.02c0.3-0.43,0.52-0.93,0.67-1.49s0.22-1.16,0.22-1.79v-0.26c0-0.62-0.08-1.21-0.23-1.78s-0.38-1.06-0.67-1.49
			c-0.3-0.43-0.68-0.77-1.13-1.03s-0.97-0.38-1.58-0.38s-1.12,0.13-1.57,0.38s-0.82,0.6-1.11,1.03c-0.3,0.43-0.53,0.93-0.68,1.49
			s-0.22,1.16-0.22,1.78v0.26C196.24,47.24,196.31,47.84,196.46,48.4z"/>
		<path class="st0" d="M218.64,39.98c0.43,0.05,0.76,0.13,0.98,0.22l-0.29,2.12c-0.42-0.09-0.82-0.16-1.2-0.21s-0.78-0.06-1.19-0.06
			c-0.53,0-1.01,0.06-1.44,0.19s-0.8,0.32-1.12,0.57c-0.29,0.22-0.54,0.49-0.76,0.8s-0.39,0.67-0.53,1.06v8.13h-2.18V40.14h2.06
			l0.09,1.7l0.01,0.32c0.52-0.7,1.13-1.24,1.86-1.65s1.54-0.6,2.47-0.6C217.79,39.9,218.2,39.93,218.64,39.98z"/>
		<path class="st0" d="M233.04,39.98c0.43,0.05,0.76,0.13,0.98,0.22l-0.29,2.12c-0.42-0.09-0.82-0.16-1.2-0.21s-0.78-0.06-1.19-0.06
			c-0.53,0-1.01,0.06-1.44,0.19s-0.8,0.32-1.12,0.57c-0.29,0.22-0.54,0.49-0.76,0.8s-0.39,0.67-0.53,1.06v8.13h-2.18V40.14h2.06
			l0.09,1.7l0.01,0.32c0.52-0.7,1.13-1.24,1.86-1.65s1.54-0.6,2.47-0.6C232.19,39.9,232.61,39.93,233.04,39.98z"/>
		<path class="st0" d="M237.68,43.81c0.27-0.79,0.65-1.47,1.15-2.04c0.49-0.58,1.09-1.03,1.8-1.37s1.51-0.5,2.4-0.5
			c0.9,0,1.71,0.17,2.42,0.5s1.32,0.79,1.82,1.37c0.49,0.58,0.87,1.26,1.14,2.04s0.4,1.63,0.4,2.55v0.26c0,0.91-0.13,1.76-0.4,2.54
			s-0.64,1.46-1.14,2.04c-0.5,0.58-1.11,1.03-1.82,1.36s-1.51,0.49-2.4,0.49c-0.9,0-1.71-0.16-2.42-0.49s-1.32-0.78-1.81-1.36
			c-0.5-0.58-0.88-1.26-1.15-2.04s-0.4-1.63-0.4-2.54v-0.26C237.28,45.44,237.41,44.59,237.68,43.81z M239.67,48.4
			c0.15,0.57,0.38,1.06,0.68,1.49c0.3,0.43,0.67,0.77,1.12,1.02s0.98,0.38,1.58,0.38c0.59,0,1.12-0.12,1.56-0.38
			s0.83-0.59,1.13-1.02c0.3-0.43,0.52-0.93,0.67-1.49s0.22-1.16,0.22-1.79v-0.26c0-0.62-0.08-1.21-0.23-1.78s-0.38-1.06-0.67-1.49
			c-0.3-0.43-0.68-0.77-1.13-1.03s-0.97-0.38-1.58-0.38s-1.12,0.13-1.57,0.38s-0.82,0.6-1.11,1.03c-0.3,0.43-0.53,0.93-0.68,1.49
			s-0.22,1.16-0.22,1.78v0.26C239.45,47.24,239.52,47.84,239.67,48.4z"/>
		<path class="st0" d="M250.81,40.14h1.92l1.48,8.09l0.26,1.82l0.32-1.82l2.03-8.09h1.39l2.02,8.09l0.34,1.99l0.32-1.99l1.41-8.09
			h1.92l-2.7,12.68h-1.71l-1.98-7.77l-0.33-1.97l-0.32,1.97l-1.96,7.77h-1.71L250.81,40.14z"/>
	</g>
</g>
</svg>
