<?xml version="1.0" encoding="utf-8"?>
<!-- Generator: Adobe Illustrator 28.0.0, SVG Export Plug-In . SVG Version: 6.00 Build 0)  -->
<svg version="1.1" id="Layer_1" xmlns="http://www.w3.org/2000/svg" xmlns:xlink="http://www.w3.org/1999/xlink" x="0px" y="0px"
	 viewBox="0 0 65.29 45.86" style="enable-background:new 0 0 65.29 45.86;" xml:space="preserve">
<g id="WiJFtN.tif">
	<g>
		<path d="M4.59,0C23.29,0,42,0,60.7,0c0.36,0.19,0.72,0.39,1.13,0.61c-0.28,0.3-0.5,0.56-0.74,0.8C52.31,10.2,43.53,19,34.75,27.8
			c-1.55,1.55-2.65,1.55-4.2,0C21.79,19.03,13.04,10.26,4.3,1.49C4.02,1.21,3.77,0.9,3.47,0.56C3.93,0.33,4.26,0.17,4.59,0z"/>
		<path d="M0,4.59c0.2-0.41,0.4-0.81,0.52-1.04C7.03,10,13.57,16.47,20.09,22.93C13.57,29.39,7.03,35.86,0.52,42.32
			C0.4,42.09,0.2,41.68,0,41.27C0,29.04,0,16.81,0,4.59z"/>
		<path d="M42.12,25.83c6.61,6.53,13.1,12.94,19.87,19.63c-1.16,0.15-2.07,0.38-2.98,0.38c-10.28,0.03-20.57,0.02-30.85,0.02
			c-7.31,0-14.62,0.01-21.93-0.02c-0.9,0-1.79-0.22-2.86-0.36c6.73-6.64,13.25-13.08,19.86-19.6c1.42,1.42,3.04,3.04,4.65,4.65
			c3.08,3.07,6.47,3.06,9.57-0.03C39.04,28.91,40.63,27.32,42.12,25.83z"/>
		<path d="M45.12,22.85c6.54-6.47,13.06-12.92,19.72-19.51c0.16,0.88,0.43,1.71,0.43,2.55c0.03,11.37,0.03,22.75,0,34.12
			c0,0.82-0.26,1.65-0.39,2.43C58.26,35.88,51.73,29.41,45.12,22.85z"/>
	</g>
</g>
</svg>
