<?xml version="1.0" encoding="utf-8"?>
<!-- Generator: Adobe Illustrator 28.0.0, SVG Export Plug-In . SVG Version: 6.00 Build 0)  -->
<svg version="1.1" id="Layer_1" xmlns="http://www.w3.org/2000/svg" xmlns:xlink="http://www.w3.org/1999/xlink" x="0px" y="0px"
	 viewBox="0 0 4991.7 402.5" style="enable-background:new 0 0 4991.7 402.5;" xml:space="preserve">
<style type="text/css">
	.st0{fill:#231F20;}
</style>
<g>
	<path class="st0" d="M479,326.9c-45.1,48.9-120.3,75.2-217.5,75.2C101.5,402.1,0,331.7,0,201.3S101.5,0.4,261,0.4
		c95,0,163.8,28.5,206.2,65.5l-101.5,76.8c-32.2-24.2-58.5-32.8-98.3-32.8c-78.4,0-114.9,35.4-114.9,91.3
		c0,56.9,38.1,93.4,114.9,93.4c27.4,0,48.3-3.8,73-14v-29.5h-94.5v-88.6h233V326.9z"/>
	<path class="st0" d="M823.8,389.2l-84.3-103.1h-67.1v103.1H523.2V13.3h270.1c104.2,0,188.5,43,188.5,136.4
		c0,61.2-36,100.9-90.2,120.8l102,118.7H823.8z M672.4,191.6h107.9c29,0,49.4-9.7,49.4-37.6s-20.4-37.6-49.4-37.6H672.4V191.6z"/>
	<path class="st0" d="M1345.6,330.1h-170.8l-26.3,59.1H992.8l186.9-375.9h163.2l186.9,375.9h-157.9L1345.6,330.1z M1304.8,238.8
		l-44.6-99.9l-44.6,99.9H1304.8z"/>
	<path class="st0" d="M2012.3,13.3v375.9h-132.1l-195.4-204.6v204.6h-145V13.3h158.9l168.6,181v-181H2012.3z"/>
	<path class="st0" d="M2463.3,123.4h-141.8v265.8h-150.4V123.4h-141.8V13.3h433.9L2463.3,123.4L2463.3,123.4z"/>
	<path class="st0" d="M2950.5,201.3c0,119.7-94.5,187.9-242.7,187.9h-227.7V13.3h227.7C2856,13.3,2950.5,81.5,2950.5,201.3z
		 M2796.9,201.3c0-48.3-37.6-76.2-102-76.2h-64.4v152.5h64.4C2759.3,277.5,2796.9,249.6,2796.9,201.3z"/>
	<path class="st0" d="M3269.6,330.1h-170.8l-26.3,59.1h-155.7l186.9-375.9h163.2l186.9,375.9h-157.9L3269.6,330.1z M3228.8,238.8
		l-44.6-99.9l-44.6,99.9H3228.8z"/>
	<path class="st0" d="M3534.4,13.3l93.4,236.8l93.4-236.8h157.9l-174,375.9h-156.8l-174-375.9C3374.4,13.3,3534.4,13.3,3534.4,13.3z
		"/>
	<path class="st0" d="M3889.2,389.2V13.3h150.4v375.9H3889.2z"/>
	<path class="st0" d="M4515.9,285v104.2h-424.2V13.3H4510v104.2h-271.2v34.9h218v93.4h-218V285L4515.9,285L4515.9,285z"/>
	<path class="st0" d="M4991.7,264.6c0,83.8-73.6,137.5-214.8,137.5c-99.3,0-187.4-25.2-249.7-69.8l72-82.7
		c41.9,28.5,107.4,51,179.9,51c44,0,65-6.4,65-19.9c0-12.9-14.5-18.8-77.3-24.2c-118.7-10.2-222.3-37.6-222.3-125.7
		c0-84.3,91.8-130.5,216.4-130.5c77.9,0,158.4,17.7,215.3,53.2l-68.2,83.2c-43.5-26.3-92.4-36.5-146.6-36.5
		c-32.8,0-69.3,3.2-69.3,17.7c0,12.4,25.8,16.1,80,20.4C4900.4,149.2,4991.7,172.8,4991.7,264.6z"/>
</g>
</svg>
