<?xml version="1.0" encoding="utf-8"?>
<!-- Generator: Adobe Illustrator 28.0.0, SVG Export Plug-In . SVG Version: 6.00 Build 0)  -->
<svg version="1.1" id="Layer_1" xmlns="http://www.w3.org/2000/svg" xmlns:xlink="http://www.w3.org/1999/xlink" x="0px" y="0px"
	 viewBox="0 0 45.86 45.86" style="enable-background:new 0 0 45.86 45.86;" xml:space="preserve">
<g id="U47lPI.tif">
	<g>
		<path d="M3.95,0c12.68,0,25.36,0,38.04,0c0.1,0.06,0.2,0.15,0.31,0.18c2.42,0.62,3.56,2,3.56,4.45c0.01,12.23,0.01,24.46,0,36.69
			c0,1.16-0.27,2.25-1.08,3.15c-1.01,1.12-2.31,1.4-3.73,1.4c-12.02,0-24.04,0-36.06,0c-2.8,0-4.06-0.95-4.83-3.65
			c-0.02-0.08-0.1-0.15-0.15-0.22C0,29.31,0,16.63,0,3.95C0.08,3.7,0.18,3.45,0.25,3.2C0.68,1.66,1.66,0.68,3.2,0.25
			C3.45,0.18,3.7,0.08,3.95,0z M25.34,19.42c0-0.42,0-0.62,0-0.82c-0.03-1.42-0.42-1.8-1.82-1.81c-1.49,0-2.99-0.01-4.48,0
			c-1.1,0.01-1.52,0.41-1.52,1.51c-0.01,7.02-0.01,14.05,0,21.07c0,1.17,0.44,1.59,1.64,1.59c1.37,0.01,2.75,0,4.12,0
			c1.68,0,2.05-0.36,2.05-2.04c0-3.5,0-6.99,0.01-10.49c0-1.4,0.32-2.72,1.17-3.87c0.92-1.25,2.23-1.54,3.67-1.35
			c1.26,0.17,2.2,0.88,2.53,2.11c0.31,1.14,0.54,2.33,0.56,3.51c0.07,3.56,0.02,7.11,0.03,10.67c0,1.06,0.4,1.46,1.47,1.47
			c1.61,0.01,3.23,0.01,4.84,0c1.16-0.01,1.62-0.37,1.61-1.54c-0.05-4.99-0.07-9.97-0.29-14.95c-0.11-2.39-0.95-4.64-2.9-6.24
			c-2.57-2.1-5.54-2.1-8.59-1.5C27.81,17.06,26.5,17.98,25.34,19.42z M6.57,28.8c0,3.53,0,7.05,0,10.58c0,1.11,0.47,1.59,1.57,1.6
			c1.55,0.01,3.11,0,4.66,0c0.89,0,1.4-0.43,1.51-1.31c0.03-0.27,0.05-0.54,0.05-0.8c0-6.66,0-13.33,0-19.99
			c0-0.24,0-0.48-0.04-0.72c-0.14-0.98-0.55-1.35-1.55-1.36c-1.46-0.01-2.93-0.01-4.39,0c-1.42,0-1.82,0.39-1.82,1.78
			C6.57,21.98,6.57,25.39,6.57,28.8z M5.48,9.91c-0.01,2.81,2.18,5.04,4.96,5.04c2.7,0,5.03-2.24,4.98-4.96
			c-0.05-3.29-2.61-5.03-5-5.03C7.68,4.96,5.49,7.15,5.48,9.91z"/>
	</g>
</g>
</svg>
